<svg width="16" height="16" viewBox="0 0 16 16" fill="none" xmlns="http://www.w3.org/2000/svg">
<path d="M15.4188 0.76875L12.1688 0.0187503C11.8156 -0.0624997 11.4531 0.121875 11.3094 0.453125L9.80938 3.95313C9.67813 4.25938 9.76563 4.61875 10.025 4.82813L11.9188 6.37813C10.7938 8.775 8.82813 10.7687 6.38126 11.9156L4.83126 10.0219C4.61876 9.7625 4.2625 9.675 3.95625 9.80625L0.456255 11.3062C0.12188 11.4531 -0.0624949 11.8156 0.0187551 12.1687L0.768755 15.4187C0.84688 15.7562 1.14688 16 1.50001 16C9.50313 16 16 9.51563 16 1.5C16 1.15 15.7594 0.846875 15.4188 0.76875Z" fill="black"/>
</svg>
