<svg width="60" height="60" viewBox="0 0 60 60" fill="none" xmlns="http://www.w3.org/2000/svg">
<path d="M37.5 35C44.4063 35 50 29.4063 50 22.5C50 21.3047 49.8281 20.1484 49.5156 19.0469C49.2734 18.2031 48.2344 18.0156 47.6172 18.6328L41.6172 24.6328C41.3828 24.8672 41.0625 25 40.7344 25H36.25C35.5625 25 35 24.4375 35 23.75V19.2656C35 18.9375 35.1328 18.6172 35.3672 18.3828L41.3672 12.3828C41.9844 11.7656 41.7891 10.7266 40.9531 10.4844C39.8516 10.1719 38.6953 10 37.5 10C30.5937 10 25 15.5937 25 22.5C25 23.9922 25.2656 25.4297 25.7422 26.7578L11.5547 40.9453C10.5625 41.9375 10 43.2891 10 44.6953C10 47.625 12.375 50 15.3047 50C16.7109 50 18.0625 49.4375 19.0547 48.4453L33.2422 34.2578C34.5703 34.7422 36.0078 35 37.5 35ZM16.25 41.875C16.7473 41.875 17.2242 42.0725 17.5758 42.4242C17.9275 42.7758 18.125 43.2527 18.125 43.75C18.125 44.2473 17.9275 44.7242 17.5758 45.0758C17.2242 45.4275 16.7473 45.625 16.25 45.625C15.7527 45.625 15.2758 45.4275 14.9242 45.0758C14.5725 44.7242 14.375 44.2473 14.375 43.75C14.375 43.2527 14.5725 42.7758 14.9242 42.4242C15.2758 42.0725 15.7527 41.875 16.25 41.875Z" fill="#496FF6"/>
</svg>
