<svg width="60" height="60" viewBox="0 0 60 60" fill="none" xmlns="http://www.w3.org/2000/svg">
<g clip-path="url(#clip0_2005_1317)">
<path d="M46.25 30C46.25 34.3098 44.538 38.443 41.4905 41.4905C38.443 44.538 34.3098 46.25 30 46.25C25.6902 46.25 21.557 44.538 18.5095 41.4905C15.462 38.443 13.75 34.3098 13.75 30C13.75 25.6902 15.462 21.557 18.5095 18.5095C21.557 15.462 25.6902 13.75 30 13.75C34.3098 13.75 38.443 15.462 41.4905 18.5095C44.538 21.557 46.25 25.6902 46.25 30ZM10 30C10 35.3043 12.1071 40.3914 15.8579 44.1421C19.6086 47.8929 24.6957 50 30 50C35.3043 50 40.3914 47.8929 44.1421 44.1421C47.8929 40.3914 50 35.3043 50 30C50 24.6957 47.8929 19.6086 44.1421 15.8579C40.3914 12.1071 35.3043 10 30 10C24.6957 10 19.6086 12.1071 15.8579 15.8579C12.1071 19.6086 10 24.6957 10 30ZM28.125 19.375V30C28.125 30.625 28.4375 31.2109 28.9609 31.5625L36.4609 36.5625C37.3203 37.1406 38.4844 36.9062 39.0625 36.0391C39.6406 35.1719 39.4062 34.0156 38.5391 33.4375L31.875 29V19.375C31.875 18.3359 31.0391 17.5 30 17.5C28.9609 17.5 28.125 18.3359 28.125 19.375Z" fill="#496FF6"/>
</g>
<defs>
<clipPath id="clip0_2005_1317">
<rect width="40" height="40" fill="white" transform="translate(10 10)"/>
</clipPath>
</defs>
</svg>
