<svg width="60" height="60" viewBox="0 0 60 60" fill="none" xmlns="http://www.w3.org/2000/svg">
<g clip-path="url(#clip0_2005_1356)">
<path d="M30 10C32.2125 10 34 11.1172 34 12.5V15.2891C34.2 15.3047 34.3875 15.3203 34.5875 15.3438C34.6375 15.3516 34.675 15.3516 34.725 15.3594L40.725 16.0469C42.9 16.2969 44.3375 17.6016 43.9375 18.9531C43.5375 20.3047 41.45 21.2109 39.2875 20.9609L33.35 20.2813C29.4375 19.9219 25.9875 20.1641 23.5625 20.7656C21.1375 21.3672 20.1625 22.1953 19.9375 22.9609C19.6875 23.7969 19.875 24.2656 20.0875 24.5547C20.3125 24.8594 20.775 25.2031 21.6875 25.5859C23.725 26.4219 26.85 26.9688 30.9 27.6406L31.2625 27.7031C34.8375 28.2969 39.2125 29.0156 42.4625 30.3437C44.2375 31.0703 45.9125 32.0547 46.95 33.4297C48.0125 34.8281 48.2375 36.3906 47.75 38.0547C46.8875 41.0234 43.6125 43.0078 39.55 44.0469C37.8375 44.4844 35.975 44.7656 34 44.9062V47.5156C34 48.8984 32.2125 50.0156 30 50.0156C27.7875 50.0156 26 48.8984 26 47.5156V44.7891C25.95 44.7812 25.8875 44.7813 25.8375 44.7734H25.8125C22.7625 44.4766 17.75 43.6562 14.375 42.7187C12.3625 42.1562 11.45 40.6797 12.35 39.4219C13.25 38.1641 15.6125 37.5937 17.625 38.1562C20.2375 38.8828 24.5375 39.6016 27.025 39.8438C31.0125 40.2109 34.3 40 36.525 39.4297C38.6375 38.8906 39.6 38.1094 39.875 37.1719C40.1125 36.3437 39.925 35.8672 39.7125 35.5781C39.475 35.2656 39.0125 34.9219 38.0875 34.5391C36.0375 33.7031 32.9 33.1562 28.8375 32.4844L28.4875 32.4297C24.925 31.8203 20.55 31.0938 17.3 29.7656C15.525 29.0391 13.8625 28.0469 12.825 26.6719C11.775 25.2734 11.5625 23.7109 12.0625 22.0469C12.9625 19.0625 16.5375 17.125 20.6 16.1172C22.2625 15.7031 24.0875 15.4219 26 15.2578V12.5C26 11.1172 27.7875 10 30 10Z" fill="#496FF6"/>
</g>
<defs>
<clipPath id="clip0_2005_1356">
<rect width="40" height="40" fill="white" transform="translate(10 10)"/>
</clipPath>
</defs>
</svg>
