<svg width="60" height="60" viewBox="0 0 60 60" fill="none" xmlns="http://www.w3.org/2000/svg">
<path d="M24.375 13.75H35.625C35.9688 13.75 36.25 14.0312 36.25 14.375V17.5H23.75V14.375C23.75 14.0312 24.0312 13.75 24.375 13.75ZM20 14.375V17.5H15C12.2422 17.5 10 19.7422 10 22.5V30H25H35H50V22.5C50 19.7422 47.7578 17.5 45 17.5H40V14.375C40 11.9609 38.0391 10 35.625 10H24.375C21.9609 10 20 11.9609 20 14.375ZM50 32.5H35V35C35 36.3828 33.8828 37.5 32.5 37.5H27.5C26.1172 37.5 25 36.3828 25 35V32.5H10V42.5C10 45.2578 12.2422 47.5 15 47.5H45C47.7578 47.5 50 45.2578 50 42.5V32.5Z" fill="#496FF6"/>
</svg>
