<svg width="120" height="120" viewBox="0 0 120 120" fill="none" xmlns="http://www.w3.org/2000/svg">
<path d="M64.7619 10C64.1468 10 63.5321 10.2535 63.0955 10.7585L20.3965 60.0574C19.4441 61.159 19.4441 62.9044 20.3965 63.9143L27.1425 71.7178C27.6187 72.2686 28.174 72.5426 28.8089 72.5426C29.4438 72.5426 30.08 72.2686 30.4768 71.7178L64.7619 32.1481L90.1587 61.5259V98.5243C87.8571 99.4424 86.1105 101.737 85.5549 104.492H75.873V66.8514C75.873 65.2907 74.8413 64.0972 73.4921 64.0972H56.0317C54.6825 64.0972 53.6508 65.2907 53.6508 66.8514V104.492H39.3651V79.7041C39.3651 78.1434 38.3333 76.95 36.9841 76.95C35.6349 76.95 34.6032 78.1434 34.6032 79.7041V86.4981C30.7143 87.5998 27.699 91.0888 26.9054 95.5872C23.0165 96.5053 19.9209 100.085 19.0479 104.492H12.381C11.0317 104.492 10 105.685 10 107.246C10 108.807 11.0317 110 12.381 110H87.7778C89.127 110 90.1587 108.807 90.1587 107.246V106.328C90.1587 104.767 91.1905 103.574 92.5397 103.574C93.8889 103.574 94.9206 104.767 94.9206 106.328V107.246C94.9206 108.807 95.9524 110 97.3016 110H99.6825C101.032 110 102.063 108.807 102.063 107.246C102.063 105.685 101.032 104.492 99.6825 104.492H99.5244C98.9689 101.737 97.2222 99.4424 94.9206 98.5243V67.0342L98.9679 71.7178C99.4441 72.2686 99.9994 72.5426 100.634 72.5426C101.269 72.5426 101.905 72.2686 102.302 71.7178L109.048 63.9143C110.001 62.8126 110.001 61.0672 109.048 60.0574L66.4283 10.7585C65.9918 10.2535 65.377 10 64.7619 10ZM64.7619 16.6344L104.048 62.0782L100.715 65.9333L66.4283 26.3654C65.9521 25.8146 65.3968 25.5388 64.7619 25.5388C64.127 25.5388 63.5717 25.8146 63.0955 26.3654L28.8089 65.9333L25.4762 62.0782L64.7619 16.6344ZM60 86.1305C61.3492 86.1305 62.381 87.324 62.381 88.8847C62.381 90.4454 61.3492 91.6389 60 91.6389C58.6508 91.6389 57.619 90.4454 57.619 88.8847C57.619 87.324 58.6508 86.1305 60 86.1305ZM34.6032 92.2808V104.492H24.047C24.92 102.288 26.8254 100.819 29.0476 100.819C30.3968 100.819 31.4286 99.626 31.4286 98.0653C31.4286 95.4947 32.6984 93.2907 34.6032 92.2808ZM107.619 104.492C106.988 104.492 106.382 104.782 105.935 105.298C105.489 105.815 105.238 106.515 105.238 107.246C105.238 107.976 105.489 108.677 105.935 109.193C106.382 109.71 106.988 110 107.619 110C108.251 110 108.856 109.71 109.303 109.193C109.749 108.677 110 107.976 110 107.246C110 106.515 109.749 105.815 109.303 105.298C108.856 104.782 108.251 104.492 107.619 104.492Z" fill="black"/>
</svg>
