<svg width="28" height="27" viewBox="0 0 28 27" fill="none" xmlns="http://www.w3.org/2000/svg">
<path d="M27.8289 19.8405V23.6958C27.8305 24.0538 27.7514 24.408 27.5967 24.7359C27.4421 25.0639 27.2152 25.3583 26.9308 25.6002C26.6463 25.8422 26.3104 26.0264 25.9447 26.141C25.579 26.2557 25.1915 26.2983 24.807 26.2661C20.5414 25.8364 16.444 24.4851 12.844 22.3208C9.49463 20.3477 6.65499 17.7152 4.52669 14.6101C2.18396 11.2575 0.726031 7.44045 0.271017 3.46817C0.236376 3.1128 0.281933 2.75463 0.404787 2.41647C0.527641 2.07831 0.7251 1.76757 0.984592 1.50404C1.24408 1.2405 1.55992 1.02994 1.912 0.885768C2.26408 0.741595 2.64468 0.666965 3.02958 0.666629H7.18822C7.86095 0.66049 8.51315 0.881343 9.02323 1.28802C9.53331 1.6947 9.86648 2.25946 9.96064 2.87702C10.1362 4.11082 10.4617 5.32224 10.931 6.48819C11.1175 6.94816 11.1579 7.44806 11.0473 7.92865C10.9367 8.40923 10.6799 8.85037 10.3072 9.19978L8.5467 10.8319C10.5201 14.0492 13.3935 16.7131 16.864 18.5425L18.6245 16.9105C19.0014 16.5649 19.4772 16.3268 19.9956 16.2243C20.514 16.1218 21.0532 16.1592 21.5494 16.3322C22.807 16.7672 24.1138 17.069 25.4446 17.2317C26.118 17.3198 26.733 17.6342 27.1726 18.1152C27.6122 18.5962 27.8458 19.2103 27.8289 19.8405Z" fill="black"/>
</svg>
