<svg width="130" height="60" viewBox="0 0 130 60" fill="none" xmlns="http://www.w3.org/2000/svg">
<g clip-path="url(#clip0_2001_785)">
<path d="M23.75 25.0216V28.7285H32.5862C32.3276 30.7974 31.6379 32.306 30.5603 33.3836C29.2672 34.6767 27.2414 36.0991 23.75 36.0991C18.319 36.0991 14.0517 31.7026 14.0517 26.2716C14.0517 20.8405 18.2759 16.4009 23.75 16.4009C26.681 16.4009 28.8362 17.5647 30.431 19.0302L33.0172 16.444C30.819 14.3319 27.8448 12.694 23.75 12.694C16.2931 12.694 10 18.7716 10 26.2285C10 33.6853 16.2931 39.7629 23.75 39.7629C27.8017 39.7629 30.819 38.4267 33.1897 35.9698C35.6466 33.5129 36.3793 30.1078 36.3793 27.306C36.3793 26.444 36.3362 25.6681 36.1638 24.9785H23.75V25.0216Z" fill="#4285F4"/>
<path d="M47.4569 22.0043C42.6293 22.0043 38.6638 25.6681 38.6638 30.7543C38.6638 35.7974 42.5862 39.5043 47.4569 39.5043C52.3276 39.5043 56.25 35.7974 56.25 30.7543C56.2069 25.6681 52.2845 22.0043 47.4569 22.0043ZM47.4569 36.056C44.8276 36.056 42.5431 33.8578 42.5431 30.7543C42.5431 27.6078 44.8276 25.4526 47.4569 25.4526C50.0862 25.4526 52.3707 27.6078 52.3707 30.7543C52.3707 33.8578 50.0862 36.056 47.4569 36.056Z" fill="#EA4335"/>
<path d="M90.431 23.944H90.3017C89.4397 22.9095 87.8017 22.0043 85.6897 22.0043C81.3362 22.0043 77.5 25.7974 77.5 30.7543C77.5 35.6681 81.2931 39.5043 85.6897 39.5043C87.8017 39.5043 89.4397 38.556 90.3017 37.5216H90.431V38.7285C90.431 42.0474 88.6207 43.8578 85.7759 43.8578C83.4483 43.8578 81.9828 42.1767 81.3793 40.7543L78.0603 42.1336C79.0086 44.4612 81.5517 47.306 85.819 47.306C90.3017 47.306 94.1379 44.6767 94.1379 38.2112V22.4785H90.5172V23.944H90.431ZM86.0345 36.056C83.4052 36.056 81.3793 33.8147 81.3793 30.7543C81.3793 27.6509 83.4052 25.4526 86.0345 25.4526C88.6638 25.4526 90.6897 27.694 90.6897 30.7974C90.7328 33.8147 88.6638 36.056 86.0345 36.056Z" fill="#4285F4"/>
<path d="M67.0259 22.0043C62.1983 22.0043 58.2328 25.6681 58.2328 30.7543C58.2328 35.7974 62.1552 39.5043 67.0259 39.5043C71.8966 39.5043 75.819 35.7974 75.819 30.7543C75.7759 25.6681 71.8534 22.0043 67.0259 22.0043ZM67.0259 36.056C64.3966 36.056 62.1121 33.8578 62.1121 30.7543C62.1121 27.6078 64.3966 25.4526 67.0259 25.4526C69.6552 25.4526 71.9397 27.6078 71.9397 30.7543C71.9397 33.8578 69.6552 36.056 67.0259 36.056Z" fill="#FBBC05"/>
<path d="M97.1121 13.0388H100.905V39.4612H97.1121V13.0388Z" fill="#34A853"/>
<path d="M112.543 36.056C110.603 36.056 109.224 35.1509 108.319 33.4267L120 28.5991L119.612 27.6078C118.879 25.6681 116.681 22.0474 112.155 22.0474C107.672 22.0474 103.922 25.5819 103.922 30.7974C103.922 35.7112 107.629 39.5474 112.586 39.5474C116.595 39.5474 118.922 37.0905 119.871 35.6681L116.897 33.6854C115.862 35.0647 114.483 36.056 112.543 36.056ZM112.284 25.2802C113.836 25.2802 115.172 26.0991 115.603 27.2198L107.716 30.4957C107.672 26.7888 110.302 25.2802 112.284 25.2802Z" fill="#EA4335"/>
</g>
<defs>
<clipPath id="clip0_2001_785">
<rect width="110" height="34.6121" fill="white" transform="translate(10 12.694)"/>
</clipPath>
</defs>
</svg>
