<svg width="40" height="40" viewBox="0 0 40 40" fill="none" xmlns="http://www.w3.org/2000/svg">
<g clip-path="url(#clip0_14_1131)">
<path d="M20.0002 0C22.2127 0 24.0002 1.11719 24.0002 2.5V5.28906C24.2002 5.30469 24.3877 5.32031 24.5877 5.34375C24.6377 5.35156 24.6752 5.35156 24.7252 5.35937L30.7252 6.04688C32.9002 6.29688 34.3377 7.60156 33.9377 8.95312C33.5377 10.3047 31.4502 11.2109 29.2877 10.9609L23.3502 10.2813C19.4377 9.92188 15.9877 10.1641 13.5627 10.7656C11.1377 11.3672 10.1627 12.1953 9.93768 12.9609C9.68768 13.7969 9.87518 14.2656 10.0877 14.5547C10.3127 14.8594 10.7752 15.2031 11.6877 15.5859C13.7252 16.4219 16.8502 16.9688 20.9002 17.6406L21.2627 17.7031C24.8377 18.2969 29.2127 19.0156 32.4627 20.3437C34.2377 21.0703 35.9127 22.0547 36.9502 23.4297C38.0127 24.8281 38.2377 26.3906 37.7502 28.0547C36.8877 31.0234 33.6127 33.0078 29.5502 34.0469C27.8377 34.4844 25.9752 34.7656 24.0002 34.9062V37.5156C24.0002 38.8984 22.2127 40.0156 20.0002 40.0156C17.7877 40.0156 16.0002 38.8984 16.0002 37.5156V34.7891C15.9502 34.7812 15.8877 34.7813 15.8377 34.7734H15.8127C12.7627 34.4766 7.75018 33.6562 4.37518 32.7187C2.36268 32.1562 1.45018 30.6797 2.35018 29.4219C3.25018 28.1641 5.61268 27.5937 7.62518 28.1562C10.2377 28.8828 14.5377 29.6016 17.0252 29.8438C21.0127 30.2109 24.3002 30 26.5252 29.4297C28.6377 28.8906 29.6002 28.1094 29.8752 27.1719C30.1127 26.3437 29.9252 25.8672 29.7127 25.5781C29.4752 25.2656 29.0127 24.9219 28.0877 24.5391C26.0377 23.7031 22.9002 23.1562 18.8377 22.4844L18.4877 22.4297C14.9252 21.8203 10.5502 21.0938 7.30018 19.7656C5.52518 19.0391 3.86268 18.0469 2.82518 16.6719C1.77518 15.2734 1.56268 13.7109 2.06268 12.0469C2.96268 9.0625 6.53768 7.125 10.6002 6.11719C12.2627 5.70313 14.0877 5.42188 16.0002 5.25781V2.5C16.0002 1.11719 17.7877 0 20.0002 0Z" fill="#3192FA"/>
</g>
<defs>
<clipPath id="clip0_14_1131">
<rect width="40" height="40" fill="white"/>
</clipPath>
</defs>
</svg>
