<svg width="60" height="60" viewBox="0 0 60 60" fill="none" xmlns="http://www.w3.org/2000/svg">
<g clip-path="url(#clip0_2005_1339)">
<path d="M22.8571 21.25V25H37.1429V21.25C37.1429 17.7969 33.9464 15 30 15C26.0536 15 22.8571 17.7969 22.8571 21.25ZM17.1429 25V21.25C17.1429 15.0391 22.9018 10 30 10C37.0982 10 42.8571 15.0391 42.8571 21.25V25H44.2857C47.4375 25 50 27.2422 50 30V45C50 47.7578 47.4375 50 44.2857 50H15.7143C12.5625 50 10 47.7578 10 45V30C10 27.2422 12.5625 25 15.7143 25H17.1429Z" fill="#496FF6"/>
</g>
<defs>
<clipPath id="clip0_2005_1339">
<rect width="40" height="40" fill="white" transform="translate(10 10)"/>
</clipPath>
</defs>
</svg>
