<svg width="33" height="33" viewBox="0 0 33 33" fill="none" xmlns="http://www.w3.org/2000/svg">
<g clip-path="url(#clip0_2001_320)">
<path d="M29.829 21.3406V25.1959C29.8306 25.5538 29.7515 25.9081 29.5969 26.236C29.4422 26.5639 29.2154 26.8583 28.9309 27.1003C28.6464 27.3422 28.3106 27.5264 27.9448 27.6411C27.5791 27.7558 27.1916 27.7983 26.8071 27.7661C22.5415 27.3364 18.4441 25.9852 14.8441 23.8208C11.4948 21.8478 8.65513 19.2152 6.52683 16.1102C4.1841 12.7576 2.72617 8.94051 2.27115 4.96823C2.23651 4.61286 2.28207 4.25469 2.40492 3.91653C2.52778 3.57837 2.72524 3.26763 2.98473 3.0041C3.24422 2.74056 3.56006 2.53 3.91214 2.38583C4.26422 2.24166 4.64482 2.16703 5.02972 2.16669H9.18835C9.86109 2.16055 10.5133 2.3814 11.0234 2.78808C11.5335 3.19476 11.8666 3.75952 11.9608 4.37708C12.1363 5.61088 12.4618 6.8223 12.9311 7.98825C13.1176 8.44822 13.158 8.94812 13.0474 9.42871C12.9369 9.90929 12.68 10.3504 12.3073 10.6998L10.5468 12.3319C12.5202 15.5493 15.3937 18.2132 18.8641 20.0426L20.6246 18.4105C21.0015 18.065 21.4773 17.8269 21.9957 17.7244C22.5141 17.6219 23.0533 17.6593 23.5495 17.8322C24.8072 18.2673 26.1139 18.5691 27.4448 18.7318C28.1181 18.8199 28.7331 19.1343 29.1727 19.6153C29.6123 20.0963 29.8459 20.7103 29.829 21.3406Z" fill="white"/>
</g>
<defs>
<clipPath id="clip0_2001_320">
<rect width="32" height="32" fill="white" transform="translate(0.5 0.5)"/>
</clipPath>
</defs>
</svg>
