<svg width="40" height="40" viewBox="0 0 40 40" fill="none" xmlns="http://www.w3.org/2000/svg">
<path d="M27.5 25C34.4062 25 40 19.4062 40 12.5C40 11.3047 39.8281 10.1484 39.5156 9.04688C39.2734 8.20312 38.2344 8.01562 37.6172 8.63281L31.6172 14.6328C31.3828 14.8672 31.0625 15 30.7344 15H26.25C25.5625 15 25 14.4375 25 13.75V9.26562C25 8.9375 25.1328 8.61719 25.3672 8.38281L31.3672 2.38281C31.9844 1.76562 31.7891 0.726562 30.9531 0.484375C29.8516 0.171875 28.6953 0 27.5 0C20.5938 0 15 5.59375 15 12.5C15 13.9922 15.2656 15.4297 15.7422 16.7578L1.55469 30.9453C0.5625 31.9375 0 33.2891 0 34.6953C0 37.625 2.375 40 5.30469 40C6.71094 40 8.0625 39.4375 9.05469 38.4453L23.2422 24.2578C24.5703 24.7422 26.0078 25 27.5 25ZM6.25 31.875C6.74728 31.875 7.22419 32.0725 7.57583 32.4242C7.92746 32.7758 8.125 33.2527 8.125 33.75C8.125 34.2473 7.92746 34.7242 7.57583 35.0758C7.22419 35.4275 6.74728 35.625 6.25 35.625C5.75272 35.625 5.27581 35.4275 4.92417 35.0758C4.57254 34.7242 4.375 34.2473 4.375 33.75C4.375 33.2527 4.57254 32.7758 4.92417 32.4242C5.27581 32.0725 5.75272 31.875 6.25 31.875Z" fill="#3192FA"/>
</svg>
