<svg width="250" height="50" viewBox="0 0 250 50" fill="none" xmlns="http://www.w3.org/2000/svg">
<g clip-path="url(#clip0_2001_563)">
<path fill-rule="evenodd" clip-rule="evenodd" d="M23.2133 11.0337C23.4135 10.4162 23.9891 9.99886 24.6371 9.99886C25.2851 9.99886 25.8587 10.4162 26.0589 11.0337L28.5689 18.7678C28.6432 18.9946 28.7881 19.1928 28.9805 19.3338C29.1749 19.4749 29.4094 19.5511 29.6476 19.5511L37.78 19.5473C38.428 19.5473 39.0017 19.9647 39.2018 20.5822C39.4019 21.1978 39.1827 21.8725 38.6586 22.2537L32.0795 27.0317C31.8851 27.1727 31.7403 27.3709 31.6659 27.5977C31.5916 27.8264 31.5935 28.0723 31.6659 28.2991L34.1817 36.0313C34.3818 36.6488 34.1626 37.3235 33.6385 37.7046C33.1144 38.0858 32.4035 38.0858 31.8794 37.7046L25.3041 32.9228C25.1097 32.7817 24.8772 32.7055 24.6371 32.7055C24.3969 32.7055 24.1644 32.7817 23.97 32.9228L17.3928 37.7046C16.8687 38.0858 16.1597 38.0858 15.6355 37.7046C15.1095 37.3235 14.8904 36.6488 15.0924 36.0313L17.6063 28.2991C17.6806 28.0723 17.6806 27.8264 17.6063 27.5977C17.5339 27.3709 17.389 27.1727 17.1946 27.0317L10.6155 22.2537C10.0914 21.8725 9.87028 21.1978 10.0704 20.5822C10.2724 19.9647 10.8461 19.5473 11.4941 19.5473L19.6246 19.5511C19.8647 19.5511 20.0992 19.4749 20.2917 19.3338C20.4861 19.1928 20.6309 18.9946 20.7033 18.7678L23.2133 11.0337Z" fill="#F6BB06"/>
</g>
<g clip-path="url(#clip1_2001_563)">
<path fill-rule="evenodd" clip-rule="evenodd" d="M73.2133 11.0337C73.4135 10.4162 73.9891 9.99886 74.6371 9.99886C75.2851 9.99886 75.8587 10.4162 76.0589 11.0337L78.5689 18.7678C78.6432 18.9946 78.7881 19.1928 78.9805 19.3338C79.1749 19.4749 79.4094 19.5511 79.6476 19.5511L87.78 19.5473C88.428 19.5473 89.0017 19.9647 89.2018 20.5822C89.4019 21.1978 89.1827 21.8725 88.6586 22.2537L82.0795 27.0317C81.8851 27.1727 81.7403 27.3709 81.6659 27.5977C81.5916 27.8264 81.5935 28.0723 81.6659 28.2991L84.1817 36.0313C84.3818 36.6488 84.1626 37.3235 83.6385 37.7046C83.1144 38.0858 82.4035 38.0858 81.8794 37.7046L75.3041 32.9228C75.1097 32.7817 74.8772 32.7055 74.6371 32.7055C74.3969 32.7055 74.1644 32.7817 73.97 32.9228L67.3928 37.7046C66.8687 38.0858 66.1597 38.0858 65.6355 37.7046C65.1095 37.3235 64.8904 36.6488 65.0924 36.0313L67.6063 28.2991C67.6806 28.0723 67.6806 27.8264 67.6063 27.5977C67.5339 27.3709 67.389 27.1727 67.1946 27.0317L60.6155 22.2537C60.0914 21.8725 59.8703 21.1978 60.0704 20.5822C60.2724 19.9647 60.8461 19.5473 61.4941 19.5473L69.6246 19.5511C69.8647 19.5511 70.0992 19.4749 70.2917 19.3338C70.4861 19.1928 70.6309 18.9946 70.7033 18.7678L73.2133 11.0337Z" fill="#F6BB06"/>
</g>
<g clip-path="url(#clip2_2001_563)">
<path fill-rule="evenodd" clip-rule="evenodd" d="M123.213 11.0337C123.413 10.4162 123.989 9.99886 124.637 9.99886C125.285 9.99886 125.859 10.4162 126.059 11.0337L128.569 18.7678C128.643 18.9946 128.788 19.1928 128.981 19.3338C129.175 19.4749 129.409 19.5511 129.648 19.5511L137.78 19.5473C138.428 19.5473 139.002 19.9647 139.202 20.5822C139.402 21.1978 139.183 21.8725 138.659 22.2537L132.08 27.0317C131.885 27.1727 131.74 27.3709 131.666 27.5977C131.592 27.8264 131.594 28.0723 131.666 28.2991L134.182 36.0313C134.382 36.6488 134.163 37.3235 133.639 37.7046C133.114 38.0858 132.403 38.0858 131.879 37.7046L125.304 32.9228C125.11 32.7817 124.877 32.7055 124.637 32.7055C124.397 32.7055 124.164 32.7817 123.97 32.9228L117.393 37.7046C116.869 38.0858 116.16 38.0858 115.636 37.7046C115.11 37.3235 114.89 36.6488 115.092 36.0313L117.606 28.2991C117.681 28.0723 117.681 27.8264 117.606 27.5977C117.534 27.3709 117.389 27.1727 117.195 27.0317L110.615 22.2537C110.091 21.8725 109.87 21.1978 110.07 20.5822C110.272 19.9647 110.846 19.5473 111.494 19.5473L119.625 19.5511C119.865 19.5511 120.099 19.4749 120.292 19.3338C120.486 19.1928 120.631 18.9946 120.703 18.7678L123.213 11.0337Z" fill="#F6BB06"/>
</g>
<g clip-path="url(#clip3_2001_563)">
<path fill-rule="evenodd" clip-rule="evenodd" d="M173.213 11.0337C173.413 10.4162 173.989 9.99886 174.637 9.99886C175.285 9.99886 175.859 10.4162 176.059 11.0337L178.569 18.7678C178.643 18.9946 178.788 19.1928 178.981 19.3338C179.175 19.4749 179.409 19.5511 179.648 19.5511L187.78 19.5473C188.428 19.5473 189.002 19.9647 189.202 20.5822C189.402 21.1978 189.183 21.8725 188.659 22.2537L182.08 27.0317C181.885 27.1727 181.74 27.3709 181.666 27.5977C181.592 27.8264 181.594 28.0723 181.666 28.2991L184.182 36.0313C184.382 36.6488 184.163 37.3235 183.639 37.7046C183.114 38.0858 182.403 38.0858 181.879 37.7046L175.304 32.9228C175.11 32.7817 174.877 32.7055 174.637 32.7055C174.397 32.7055 174.164 32.7817 173.97 32.9228L167.393 37.7046C166.869 38.0858 166.16 38.0858 165.636 37.7046C165.11 37.3235 164.89 36.6488 165.092 36.0313L167.606 28.2991C167.681 28.0723 167.681 27.8264 167.606 27.5977C167.534 27.3709 167.389 27.1727 167.195 27.0317L160.615 22.2537C160.091 21.8725 159.87 21.1978 160.07 20.5822C160.272 19.9647 160.846 19.5473 161.494 19.5473L169.625 19.5511C169.865 19.5511 170.099 19.4749 170.292 19.3338C170.486 19.1928 170.631 18.9946 170.703 18.7678L173.213 11.0337Z" fill="#F6BB06"/>
</g>
<g clip-path="url(#clip4_2001_563)">
<path fill-rule="evenodd" clip-rule="evenodd" d="M223.213 11.0337C223.413 10.4162 223.989 9.99886 224.637 9.99886C225.285 9.99886 225.859 10.4162 226.059 11.0337L228.569 18.7678C228.643 18.9946 228.788 19.1928 228.981 19.3338C229.175 19.4749 229.409 19.5511 229.648 19.5511L237.78 19.5473C238.428 19.5473 239.002 19.9647 239.202 20.5822C239.402 21.1978 239.183 21.8725 238.659 22.2537L232.08 27.0317C231.885 27.1727 231.74 27.3709 231.666 27.5977C231.592 27.8264 231.594 28.0723 231.666 28.2991L234.182 36.0313C234.382 36.6488 234.163 37.3235 233.639 37.7046C233.114 38.0858 232.403 38.0858 231.879 37.7046L225.304 32.9228C225.11 32.7817 224.877 32.7055 224.637 32.7055C224.397 32.7055 224.164 32.7817 223.97 32.9228L217.393 37.7046C216.869 38.0858 216.16 38.0858 215.636 37.7046C215.11 37.3235 214.89 36.6488 215.092 36.0313L217.606 28.2991C217.681 28.0723 217.681 27.8264 217.606 27.5977C217.534 27.3709 217.389 27.1727 217.195 27.0317L210.615 22.2537C210.091 21.8725 209.87 21.1978 210.07 20.5822C210.272 19.9647 210.846 19.5473 211.494 19.5473L219.625 19.5511C219.865 19.5511 220.099 19.4749 220.292 19.3338C220.486 19.1928 220.631 18.9946 220.703 18.7678L223.213 11.0337Z" fill="#F6BB06"/>
</g>
<defs>
<clipPath id="clip0_2001_563">
<rect width="30" height="28.125" fill="white" transform="translate(10 10)"/>
</clipPath>
<clipPath id="clip1_2001_563">
<rect width="30" height="28.125" fill="white" transform="translate(60 10)"/>
</clipPath>
<clipPath id="clip2_2001_563">
<rect width="30" height="28.125" fill="white" transform="translate(110 10)"/>
</clipPath>
<clipPath id="clip3_2001_563">
<rect width="30" height="28.125" fill="white" transform="translate(160 10)"/>
</clipPath>
<clipPath id="clip4_2001_563">
<rect width="30" height="28.125" fill="white" transform="translate(210 10)"/>
</clipPath>
</defs>
</svg>
